<svg width="1440" height="421" viewBox="0 0 1440 421" fill="none" xmlns="http://www.w3.org/2000/svg">
<path fill-rule="evenodd" clip-rule="evenodd" d="M658.78 250.669L864.686 504.143L914.312 471.185L708.28 211.216L658.78 250.669Z" fill="#E54417"/>
<path fill-rule="evenodd" clip-rule="evenodd" d="M1360.78 163.707L1117.59 341.378L1139.93 373.525L1386.43 214.102L1360.78 163.707Z" fill="#EAE8E3"/>
<rect x="920.076" y="318" width="162.706" height="25.2108" transform="rotate(-123.903 920.076 318)" fill="#60BEBF"/>
<path fill-rule="evenodd" clip-rule="evenodd" d="M705.396 455L799.989 570.188L840.266 547L748.09 421.098L705.396 455Z" fill="#3A8EAA"/>
<rect x="1418" y="39.3267" width="380.316" height="50.3661" transform="rotate(139.958 1418 39.3267)" fill="#1751E5"/>
<path fill-rule="evenodd" clip-rule="evenodd" d="M1216.15 237.508L1094.77 334.45L1071.69 309.058L1193.08 212.116L1216.15 237.508Z" fill="#E5AB17"/>
<rect x="1293.13" y="925" width="947.973" height="21.3867" transform="rotate(-128.457 1293.13 925)" fill="#121212"/>
<path fill-rule="evenodd" clip-rule="evenodd" d="M907.345 373.921L1303.73 854.633L1365.79 814.235L975.727 322.587L907.345 373.921Z" fill="#1751E5"/>
<path fill-rule="evenodd" clip-rule="evenodd" d="M530.609 386.904C509.525 391.961 496.511 413.06 501.541 434.031C506.571 455.001 527.741 467.901 548.824 462.844C569.908 457.786 582.922 436.687 577.892 415.717C572.862 394.746 551.693 381.846 530.609 386.904Z" fill="#849C9B"/>
<path fill-rule="evenodd" clip-rule="evenodd" d="M1344.45 393.752C1306.48 402.859 1283.04 440.857 1292.1 478.622C1301.16 516.386 1339.28 539.618 1377.25 530.51C1415.22 521.403 1438.66 483.405 1429.6 445.64C1420.54 407.876 1382.42 384.644 1344.45 393.752Z" fill="#EAE8E3"/>
<path fill-rule="evenodd" clip-rule="evenodd" d="M1206 395.142C1189.56 399.085 1179.41 415.536 1183.33 431.886C1187.26 448.237 1203.76 458.295 1220.2 454.351C1236.64 450.408 1246.79 433.958 1242.86 417.607C1238.94 401.257 1222.44 391.199 1206 395.142Z" fill="#BFCBBA"/>
<path d="M456.662 235.425L311.947 65.7587L306.621 70.3013L451.336 239.967L456.662 235.425Z" fill="#28203D"/>
<path d="M1269.88 201.197L1453.83 52.4626L1451.2 49.2165L1267.26 197.951L1269.88 201.197Z" fill="#28203D"/>
<path fill-rule="evenodd" clip-rule="evenodd" d="M323.936 385.407L362.733 430.037L366.202 427.021L327.406 382.391L372.036 343.595L369.02 340.126L324.39 378.922L285.594 334.292L282.124 337.308L320.92 381.938L276.29 420.734L279.306 424.204L323.936 385.407Z" fill="#DC4618"/>
<path fill-rule="evenodd" clip-rule="evenodd" d="M1360.23 462.018L1380.21 485L1382 483.447L1362.02 460.465L1385 440.486L1383.45 438.7L1360.46 458.678L1340.49 435.695L1338.7 437.249L1358.68 460.231L1335.7 480.21L1337.25 481.996L1360.23 462.018Z" fill="#DC4618"/>
</svg>
