<svg width="29" height="31" viewBox="0 0 29 31" fill="none" xmlns="http://www.w3.org/2000/svg">
<path d="M20.3334 29.3334V24.1734C20.3834 23.5376 20.2975 22.8984 20.0814 22.2984C19.8653 21.6984 19.5239 21.1513 19.08 20.6934C23.2667 20.2267 27.6667 18.64 27.6667 11.36C27.6663 9.49847 26.9503 7.70829 25.6667 6.36003C26.2745 4.73137 26.2315 2.93116 25.5467 1.33336C25.5467 1.33336 23.9734 0.866695 20.3334 3.3067C17.2774 2.47846 14.056 2.47846 11 3.3067C7.36002 0.866695 5.78669 1.33336 5.78669 1.33336C5.10186 2.93116 5.05888 4.73137 5.66669 6.36003C4.37352 7.71829 3.65672 9.52465 3.66669 11.4C3.66669 18.6267 8.06669 20.2134 12.2534 20.7334C11.8147 21.1867 11.4764 21.7272 11.2604 22.3199C11.0445 22.9126 10.9558 23.5441 11 24.1734V29.3334M11 25.3334C4.33335 27.3334 4.33335 22 1.66669 21.3334L11 25.3334Z" stroke="#B0B0B0" stroke-width="2" stroke-linecap="round" stroke-linejoin="round"/>
</svg>
