<svg width="507" height="171" viewBox="0 0 507 171" fill="none" xmlns="http://www.w3.org/2000/svg">
<path d="M457 124.838C400.808 189.653 266.786 175.132 218.703 140.792C163.551 101.405 189.566 29.111 207.256 14.1537C224.947 -0.80361 248.36 -5.78922 269.692 14.1537C288.089 31.3518 281.139 77.4732 263.449 93.926C236.268 119.206 176.02 130.371 143.78 124.838C108.92 118.855 76.141 105.892 64.6945 89.9377C53.2479 73.9832 65.7351 55.1523 78.2222 50.55C91.75 45.5643 115.684 63.0142 106.318 93.926C96.953 124.838 77.1816 140.792 47.0043 140.792C22.8624 140.792 -14.391 109.548 -30 93.926" stroke="white" stroke-opacity="0.5" stroke-width="2" stroke-dasharray="10 10"/>
<g clip-path="url(#clip0)">
<path d="M491.976 59.0274C491.972 59.0033 491.972 58.9783 491.966 58.9548C491.951 58.8821 491.92 58.813 491.889 58.7442C491.882 58.7267 491.879 58.7086 491.87 58.6914C491.823 58.6025 491.763 58.5199 491.688 58.446C491.676 58.4332 491.661 58.4222 491.647 58.4096C491.645 58.4083 491.644 58.4055 491.642 58.4029C491.64 58.4013 491.637 58.4012 491.635 58.3987C491.625 58.3903 491.616 58.3807 491.606 58.3732C491.52 58.3052 491.426 58.2562 491.326 58.2205C491.304 58.2129 491.281 58.2119 491.258 58.2055C491.172 58.1811 491.086 58.1665 490.998 58.166C490.959 58.1657 490.922 58.1712 490.883 58.1759C490.809 58.1836 490.737 58.1989 490.666 58.2238C490.628 58.2368 490.592 58.2501 490.556 58.2679C490.532 58.2795 490.507 58.2833 490.484 58.2968L438.75 87.2253C438.382 87.4317 438.182 87.8464 438.252 88.2627C438.321 88.6791 438.644 89.007 439.059 89.0825L457.562 92.4363L465.221 106.992C465.222 107.004 465.229 107.016 465.232 107.027C465.246 107.107 465.269 107.181 465.302 107.254C465.319 107.29 465.335 107.325 465.356 107.359C465.407 107.443 465.469 107.517 465.542 107.582C465.556 107.594 465.562 107.612 465.577 107.624C465.582 107.628 465.588 107.63 465.593 107.633C465.611 107.647 465.633 107.656 465.653 107.669C465.715 107.711 465.778 107.746 465.845 107.772C465.855 107.776 465.864 107.785 465.876 107.789C465.894 107.795 465.911 107.792 465.928 107.797C465.998 107.817 466.068 107.83 466.14 107.834C466.169 107.836 466.196 107.84 466.225 107.839C466.319 107.836 466.413 107.826 466.503 107.797C466.504 107.797 466.505 107.797 466.506 107.796C466.509 107.795 466.513 107.792 466.516 107.791C466.533 107.787 466.549 107.782 466.566 107.777C466.83 107.694 467.031 107.5 467.15 107.262L475.488 96.8815L488.821 100.576C489.009 100.627 489.207 100.623 489.389 100.565C489.489 100.533 489.586 100.485 489.674 100.422C489.92 100.243 490.072 99.9623 490.086 99.6579L491.985 59.2173C491.987 59.181 491.987 59.1443 491.985 59.1072C491.984 59.0917 491.981 59.0771 491.979 59.0629C491.979 59.0515 491.977 59.0394 491.976 59.0274ZM482.855 68.6035L465.293 92.6541C465.264 92.6935 465.245 92.7371 465.223 92.7798C465.215 92.7952 465.205 92.8086 465.199 92.8243C465.185 92.8526 465.174 92.8802 465.164 92.9098C465.154 92.9381 465.148 92.9662 465.14 92.9948C465.123 93.0632 465.112 93.1316 465.109 93.2018C465.108 93.2157 465.104 93.2276 465.104 93.2412C465.104 93.2454 465.101 93.2485 465.101 93.2526L465.172 102.603L459.451 91.7303L482.855 68.6035ZM467.229 103.97L467.116 94.5635L471.994 95.9155L473.389 96.302L470.285 100.166L467.229 103.97ZM485.039 63.6335L457.888 90.4623L442.158 87.6114L485.039 63.6335ZM488.148 98.3144L470.443 93.4094L467.761 92.6659L489.833 62.4386L488.148 98.3144Z" fill="white"/>
</g>
<defs>
<clipPath id="clip0">
<rect width="60.062" height="60.062" fill="white" transform="translate(431.347 66.4443) rotate(-17.5364)"/>
</clipPath>
</defs>
</svg>
