<svg width="32" height="32" viewBox="0 0 32 32" fill="none" xmlns="http://www.w3.org/2000/svg">
<path d="M21.3334 10.6667C23.4551 10.6667 25.4899 11.5095 26.9902 13.0098C28.4905 14.5101 29.3334 16.5449 29.3334 18.6667V28H24V18.6667C24 17.9594 23.7191 17.2811 23.219 16.781C22.7189 16.2809 22.0406 16 21.3334 16C20.6261 16 19.9479 16.2809 19.4478 16.781C18.9477 17.2811 18.6667 17.9594 18.6667 18.6667V28H13.3334V18.6667C13.3334 16.5449 14.1762 14.5101 15.6765 13.0098C17.1768 11.5095 19.2116 10.6667 21.3334 10.6667V10.6667Z" stroke="#B0B0B0" stroke-width="2" stroke-linecap="round" stroke-linejoin="round"/>
<path d="M7.99996 12H2.66663V28H7.99996V12Z" stroke="#B0B0B0" stroke-width="2" stroke-linecap="round" stroke-linejoin="round"/>
<path d="M5.33329 7.99999C6.80605 7.99999 7.99996 6.80608 7.99996 5.33332C7.99996 3.86056 6.80605 2.66666 5.33329 2.66666C3.86053 2.66666 2.66663 3.86056 2.66663 5.33332C2.66663 6.80608 3.86053 7.99999 5.33329 7.99999Z" stroke="#B0B0B0" stroke-width="2" stroke-linecap="round" stroke-linejoin="round"/>
</svg>
