<svg width="706" height="862" viewBox="0 0 706 862" fill="none" xmlns="http://www.w3.org/2000/svg">
<g clip-path="url(#clip0)">
<path fill-rule="evenodd" clip-rule="evenodd" d="M450 606C587.519 606 699 494.518 699 357C699 219.481 587.519 108 450 108C312.481 108 201 219.481 201 357C201 494.518 312.481 606 450 606Z" fill="#BFCBBA"/>
<path fill-rule="evenodd" clip-rule="evenodd" d="M873.22 839.331L667.314 585.857L617.688 618.815L823.72 878.784L873.22 839.331Z" fill="#E54417"/>
<path fill-rule="evenodd" clip-rule="evenodd" d="M171.223 926.293L414.413 748.622L392.074 716.475L145.57 875.898L171.223 926.293Z" fill="#EAE8E3"/>
<rect x="611.924" y="772" width="162.706" height="25.2108" transform="rotate(56.0969 611.924 772)" fill="#60BEBF"/>
<path fill-rule="evenodd" clip-rule="evenodd" d="M826.604 635L732.011 519.812L691.734 543L783.91 668.902L826.604 635Z" fill="#3A8EAA"/>
<path fill-rule="evenodd" clip-rule="evenodd" d="M1492.54 -229.315L511.51 456.907L559.875 520.109L1576.96 -124.47L1492.54 -229.315Z" fill="#2A3E4C"/>
<path fill-rule="evenodd" clip-rule="evenodd" d="M573.375 532.382L912.851 346.733L937.3 390.767L601.875 574.593L573.375 532.382Z" fill="#E5AB17"/>
<rect x="114" y="1050.67" width="380.316" height="50.3661" transform="rotate(-40.0416 114 1050.67)" fill="#1751E5"/>
<path fill-rule="evenodd" clip-rule="evenodd" d="M315.848 852.492L437.235 755.55L460.308 780.942L338.921 877.884L315.848 852.492Z" fill="#E5AB17"/>
<rect x="238.871" y="165" width="947.973" height="21.3867" transform="rotate(51.5427 238.871 165)" fill="#121212"/>
<path fill-rule="evenodd" clip-rule="evenodd" d="M624.655 716.079L228.267 235.367L166.207 275.765L556.273 767.413L624.655 716.079Z" fill="#1751E5"/>
<path fill-rule="evenodd" clip-rule="evenodd" d="M493.066 395.672C509.585 391.71 519.782 375.178 515.841 358.748C511.9 342.318 495.314 332.211 478.795 336.174C462.276 340.136 452.08 356.667 456.021 373.097C459.961 389.527 476.547 399.634 493.066 395.672Z" fill="#E54417"/>
<path fill-rule="evenodd" clip-rule="evenodd" d="M326.002 694.858C342.441 690.915 352.588 674.464 348.666 658.114C344.744 641.763 328.239 631.705 311.8 635.649C295.361 639.592 285.214 656.042 289.136 672.393C293.058 688.743 309.563 698.801 326.002 694.858Z" fill="#BFCBBA"/>
<path d="M508.128 428.163L787.935 234.96L785.563 231.525L505.756 424.728L508.128 428.163Z" fill="#28203D"/>
<path d="M164.372 13.6136L309.166 194.424L312.424 191.814L167.63 11.0042L164.372 13.6136Z" fill="#121212"/>
</g>
<defs>
<clipPath id="clip0">
<rect width="1600" height="1200" fill="white" transform="translate(0 -57)"/>
</clipPath>
</defs>
</svg>
