<svg class="como" width="80%" viewBox="0 0 910 474" version="1.1" xmlns="http://www.w3.org/2000/svg" xmlns:xlink="http://www.w3.org/1999/xlink">
                <title>Group 8</title>
                <defs>
                    <circle id="path-1" cx="20" cy="20" r="20"></circle>
                    <filter x="-162.5%" y="-137.5%" width="425.0%" height="425.0%" filterUnits="objectBoundingBox" id="filter-2">
                        <feOffset dx="0" dy="10" in="SourceAlpha" result="shadowOffsetOuter1"></feOffset>
                        <feGaussianBlur stdDeviation="20" in="shadowOffsetOuter1" result="shadowBlurOuter1">
                        </feGaussianBlur>
                        <feColorMatrix values="0 0 0 0 0.149041745   0 0 0 0 0.198883286   0 0 0 0 0.383661685  0 0 0 0.15 0" type="matrix" in="shadowBlurOuter1"></feColorMatrix>
                    </filter>
                    <path d="M180,0 C185.522847,-1.01453063e-15 190,4.4771525 190,10 L190,43 C190,48.5228475 185.522847,53 180,53 L21.075,53 L0,77 L0,45 L0.214272321,45.0688819 C0.073847115,44.4013485 8.68639803e-17,43.7092982 0,43 L0,10 C-6.76353751e-16,4.4771525 4.4771525,1.01453063e-15 10,0 L180,0 Z" id="path-3"></path>
                    <filter x="-34.2%" y="-71.4%" width="168.4%" height="268.8%" filterUnits="objectBoundingBox" id="filter-4">
                        <feOffset dx="0" dy="10" in="SourceAlpha" result="shadowOffsetOuter1"></feOffset>
                        <feGaussianBlur stdDeviation="20" in="shadowOffsetOuter1" result="shadowBlurOuter1">
                        </feGaussianBlur>
                        <feColorMatrix values="0 0 0 0 0.149041745   0 0 0 0 0.198883286   0 0 0 0 0.383661685  0 0 0 0.15 0" type="matrix" in="shadowBlurOuter1"></feColorMatrix>
                    </filter>
                    <path d="M180,0 C185.522847,-1.01453063e-15 190,4.4771525 190,10 L190,43 C190,43.7092982 189.926153,44.4013485 189.785728,45.0688819 L190,45 L190,77 L168.925,53 L10,53 C4.4771525,53 6.76353751e-16,48.5228475 0,43 L0,10 C-6.76353751e-16,4.4771525 4.4771525,1.01453063e-15 10,0 L180,0 Z" id="path-5"></path>
                    <filter x="-34.2%" y="-71.4%" width="168.4%" height="268.8%" filterUnits="objectBoundingBox" id="filter-6">
                        <feOffset dx="0" dy="10" in="SourceAlpha" result="shadowOffsetOuter1"></feOffset>
                        <feGaussianBlur stdDeviation="20" in="shadowOffsetOuter1" result="shadowBlurOuter1">
                        </feGaussianBlur>
                        <feColorMatrix values="0 0 0 0 0.149041745   0 0 0 0 0.198883286   0 0 0 0 0.383661685  0 0 0 0.15 0" type="matrix" in="shadowBlurOuter1"></feColorMatrix>
                    </filter>
                    <circle id="path-7" cx="222" cy="152" r="26"></circle>
                    <filter x="-125.0%" y="-105.8%" width="350.0%" height="350.0%" filterUnits="objectBoundingBox" id="filter-8">
                        <feOffset dx="0" dy="10" in="SourceAlpha" result="shadowOffsetOuter1"></feOffset>
                        <feGaussianBlur stdDeviation="20" in="shadowOffsetOuter1" result="shadowBlurOuter1">
                        </feGaussianBlur>
                        <feColorMatrix values="0 0 0 0 0.149041745   0 0 0 0 0.198883286   0 0 0 0 0.383661685  0 0 0 0.15 0" type="matrix" in="shadowBlurOuter1"></feColorMatrix>
                    </filter>
                    <circle id="path-9" cx="18" cy="18" r="18"></circle>
                    <filter x="-180.6%" y="-152.8%" width="461.1%" height="461.1%" filterUnits="objectBoundingBox" id="filter-10">
                        <feOffset dx="0" dy="10" in="SourceAlpha" result="shadowOffsetOuter1"></feOffset>
                        <feGaussianBlur stdDeviation="20" in="shadowOffsetOuter1" result="shadowBlurOuter1">
                        </feGaussianBlur>
                        <feColorMatrix values="0 0 0 0 0.149041745   0 0 0 0 0.198883286   0 0 0 0 0.383661685  0 0 0 0.15 0" type="matrix" in="shadowBlurOuter1"></feColorMatrix>
                    </filter>
                    <rect id="path-11" x="0" y="0" width="260" height="336" rx="20"></rect>
                    <filter x="-25.0%" y="-16.4%" width="150.0%" height="138.7%" filterUnits="objectBoundingBox" id="filter-12">
                        <feOffset dx="0" dy="10" in="SourceAlpha" result="shadowOffsetOuter1"></feOffset>
                        <feGaussianBlur stdDeviation="20" in="shadowOffsetOuter1" result="shadowBlurOuter1">
                        </feGaussianBlur>
                        <feColorMatrix values="0 0 0 0 0.149041745   0 0 0 0 0.198883286   0 0 0 0 0.383661685  0 0 0 0.15 0" type="matrix" in="shadowBlurOuter1"></feColorMatrix>
                    </filter>
                    <circle id="path-13" cx="34" cy="34" r="34"></circle>
                    <circle id="path-15" cx="26.5" cy="26.5" r="26.5"></circle>
                    <circle id="path-17" cx="20.3846154" cy="20.3846154" r="20.3846154"></circle>
                    <circle id="path-19" cx="20.3846154" cy="20.3846154" r="20.3846154"></circle>
                </defs>
                <g id="Page-1" stroke="none" stroke-width="1" fill="none" fill-rule="evenodd">
                    <g id="Landing-page-Copy-2" transform="translate(-289.000000, -496.000000)">
                        <g id="Group-8" transform="translate(329.000000, 526.000000)">
                            <g id="Group-6" transform="translate(517.000000, 9.000000)">
                                <g id="Oval-Copy-6">
                                    <use fill="black" fill-opacity="1" filter="url(#filter-2)" xlink:href="#path-1">
                                    </use>
                                    <use fill="#FFFFFF" fill-rule="evenodd" xlink:href="#path-1"></use>
                                </g>
                                <path d="M26.6034146,15.2098161 C25.8239227,14.433598 24.7655812,13.9983961 23.6613453,14 C22.5571095,14.0016128 21.4974898,14.4398994 20.7157229,15.2183914 L19.9123754,16.0179993 L19.1113647,15.2207282 C17.4878915,13.6048343 14.8518822,13.6086737 13.223673,15.2293036 C11.5954638,16.8499335 11.5916245,19.4736543 13.2150976,21.0895482 L14.0161083,21.8868193 L19.8952247,27.7384887 L25.7914918,21.8696686 L26.5948392,21.0700607 C27.3769721,20.291933 27.8173043,19.2372499 27.818917,18.1381618 C27.8205209,17.0390736 27.3832735,15.9856688 26.6034146,15.2098161 Z" id="Path" fill="#FF8F7E"></path>
                            </g>
                            <g id="Group-4" transform="translate(640.000000, 0.000000)">
                                <g id="Combined-Shape">
                                    <use fill="black" fill-opacity="1" filter="url(#filter-4)" xlink:href="#path-3">
                                    </use>
                                    <use fill="#FFFFFF" fill-rule="evenodd" xlink:href="#path-3"></use>
                                </g>
                                <path d="M36.9282734,18.5282305 L39.2939379,23.3018689 L45.0857372,24.162689 C45.9830582,24.3192017 46.3093567,25.3365345 45.6567596,25.8843291 L41.6596024,29.5623784 L42.5569234,35.1185805 C42.7200727,35.9794005 41.8227517,36.5271951 41.0885799,36.1359133 L36.1941017,33.6317095 L30.9733248,36.2141696 C30.1575784,36.6054515 29.3418321,35.9794005 29.5049813,35.1185805 L30.483877,29.9536602 L26.3235705,25.9625854 C25.6709734,25.3365345 26.0788466,24.3192017 26.8945929,24.2409453 L32.3600937,23.536638 L35.0520567,18.5282305 C35.4599299,17.8239232 36.5204002,17.8239232 36.9282734,18.5282305 Z M66.9282734,18.5282305 L69.2939379,23.3018689 L75.0857372,24.162689 C75.9830582,24.3192017 76.3093567,25.3365345 75.6567596,25.8843291 L71.6596024,29.5623784 L72.5569234,35.1185805 C72.7200727,35.9794005 71.8227517,36.5271951 71.0885799,36.1359133 L66.1941017,33.6317095 L60.9733248,36.2141696 C60.1575784,36.6054515 59.3418321,35.9794005 59.5049813,35.1185805 L60.483877,29.9536602 L56.3235705,25.9625854 C55.6709734,25.3365345 56.0788466,24.3192017 56.8945929,24.2409453 L62.3600937,23.536638 L65.0520567,18.5282305 C65.4599299,17.8239232 66.5204002,17.8239232 66.9282734,18.5282305 Z M96.9282734,18.5282305 L99.2939379,23.3018689 L105.085737,24.162689 C105.983058,24.3192017 106.309357,25.3365345 105.65676,25.8843291 L101.659602,29.5623784 L102.556923,35.1185805 C102.720073,35.9794005 101.822752,36.5271951 101.08858,36.1359133 L96.1941017,33.6317095 L90.9733248,36.2141696 C90.1575784,36.6054515 89.3418321,35.9794005 89.5049813,35.1185805 L90.483877,29.9536602 L86.3235705,25.9625854 C85.6709734,25.3365345 86.0788466,24.3192017 86.8945929,24.2409453 L92.3600937,23.536638 L95.0520567,18.5282305 C95.4599299,17.8239232 96.5204002,17.8239232 96.9282734,18.5282305 Z M126.928273,18.5282305 L129.293938,23.3018689 L135.085737,24.162689 C135.983058,24.3192017 136.309357,25.3365345 135.65676,25.8843291 L131.659602,29.5623784 L132.556923,35.1185805 C132.720073,35.9794005 131.822752,36.5271951 131.08858,36.1359133 L126.194102,33.6317095 L120.973325,36.2141696 C120.157578,36.6054515 119.341832,35.9794005 119.504981,35.1185805 L120.483877,29.9536602 L116.32357,25.9625854 C115.670973,25.3365345 116.078847,24.3192017 116.894593,24.2409453 L122.360094,23.536638 L125.052057,18.5282305 C125.45993,17.8239232 126.5204,17.8239232 126.928273,18.5282305 Z M156.928273,18.5282305 L159.293938,23.3018689 L165.085737,24.162689 C165.983058,24.3192017 166.309357,25.3365345 165.65676,25.8843291 L161.659602,29.5623784 L162.556923,35.1185805 C162.720073,35.9794005 161.822752,36.5271951 161.08858,36.1359133 L156.194102,33.6317095 L150.973325,36.2141696 C150.157578,36.6054515 149.341832,35.9794005 149.504981,35.1185805 L150.483877,29.9536602 L146.32357,25.9625854 C145.670973,25.3365345 146.078847,24.3192017 146.894593,24.2409453 L152.360094,23.536638 L155.052057,18.5282305 C155.45993,17.8239232 156.5204,17.8239232 156.928273,18.5282305 Z" id="Combined-Shape" fill="#FFCE6D"></path>
                            </g>
                            <g id="Group-4-Copy" transform="translate(0.000000, 191.000000)">
                                <g id="Combined-Shape">
                                    <use fill="black" fill-opacity="1" filter="url(#filter-6)" xlink:href="#path-5">
                                    </use>
                                    <use fill="#FFFFFF" fill-rule="evenodd" xlink:href="#path-5"></use>
                                </g>
                                <rect id="Rectangle" fill="#DADBF8" x="66" y="22" width="95" height="4" rx="2"></rect>
                                <rect id="Rectangle-Copy-2" fill="#DADBF8" x="66" y="32" width="89" height="4" rx="2">
                                </rect>
                                <g id="noun_like_1122321" transform="translate(19.000000, 12.000000)" fill-rule="nonzero">
                                    <path d="M26.8149505,28.4616832 C27.0371287,28.3309901 27.2625743,28.210099 27.4880198,28.0924752 C27.6187129,27.9193069 27.7494059,27.7461386 27.8866337,27.579505 C28.6686139,25.4012871 29.4560396,23.2165347 30.2489109,21.0252475 C30.6845545,19.8315842 31.120198,18.6335644 31.5558416,17.4311881 L31.5558416,17.4083168 L31.5852475,17.3723762 C31.9468317,16.3856436 32.3105941,15.3989109 32.6765347,14.4121782 C32.6765347,14.4121782 32.6765347,14.379505 32.6765347,14.3664356 C32.643081,12.2153884 30.9036221,10.4817229 28.7524752,10.4554455 L23.0967327,10.4554455 C23.1429432,10.2894455 23.1974674,10.1258729 23.260099,9.96534653 C23.3240453,9.80970455 23.3993987,9.65899765 23.4855446,9.51445545 C23.5813861,9.35108911 23.6489109,9.22910891 23.6881188,9.14851485 C23.9320792,8.68673267 24.1194059,8.30554455 24.250099,8.0049505 C24.4110262,7.60714379 24.5410161,7.19751195 24.6389109,6.77970297 C24.7667228,6.2722677 24.8314688,5.75100701 24.8316832,5.22772277 C24.8316832,4.9009901 24.8316832,4.63633663 24.8316832,4.43049505 C24.8140488,4.12289064 24.7802397,3.8164273 24.730396,3.51237624 C24.6835644,3.16513028 24.6014568,2.82356275 24.4853465,2.4929703 C24.3560487,2.16992804 24.1916992,1.8620465 23.9952475,1.57485149 C23.7823632,1.24634835 23.5043563,0.965005423 23.1784158,0.748217822 C22.7987469,0.511542327 22.3857411,0.333123796 21.9531683,0.218910891 C21.4010011,0.0666921878 20.8301474,-0.00700183992 20.2574257,-8.12522792e-15 C19.9108947,-0.00239309391 19.5787258,0.138276317 19.3393069,0.388811881 C19.0495005,0.685303508 18.8139507,1.03033423 18.6433663,1.40821782 C18.4776824,1.74897781 18.34423,2.10448615 18.2447525,2.47009901 C18.1706931,2.76851485 18.0857426,3.18346535 17.989901,3.7149505 C17.8679208,4.28782178 17.7764356,4.70059406 17.7154455,4.95326733 C17.6230362,5.28896627 17.5039441,5.61674252 17.3593069,5.93346535 C17.2113512,6.29705319 16.9963258,6.62956676 16.7254455,6.91366337 C15.9953486,7.69344529 15.3071529,8.51142746 14.6637624,9.36415842 C13.9972277,10.2354455 13.31,11.0588119 12.6020792,11.8342574 C11.8941584,12.609703 11.3768317,13.0115842 11.050099,13.039901 C10.7150547,13.064177 10.401359,13.2134448 10.1711881,13.4581188 C9.93023028,13.6944014 9.79676847,14.0191978 9.80183309,14.3566337 L9.80183309,27.4455446 C9.79794484,27.7895497 9.93910545,28.1193199 10.1907921,28.3538614 C10.2826881,28.4423325 10.3859752,28.5181497 10.4979208,28.5793069 C12.4158416,28.540099 21.5055446,28.4257426 26.8149505,28.4616832 Z" id="Path" fill="#FFD4C6"></path>
                                    <path d="M8.10623762,13.4581188 C7.86681876,13.2075832 7.53464981,13.0669138 7.18811881,13.0692769 L1.30693069,13.0692769 C0.960399692,13.0669138 0.628230746,13.2075832 0.388811881,13.4581188 C0.138276317,13.6975377 -0.00239309391,14.0297066 -3.00425079e-05,14.3762376 L-3.00425079e-05,27.4455446 C-0.00239309391,27.7920756 0.138276317,28.1242445 0.388811881,28.3636634 C0.628230746,28.6141989 0.960399692,28.7548683 1.30693069,28.7525053 L7.18811881,28.7525053 C7.90551155,28.7419495 8.48452372,28.1629373 8.49507955,27.4455446 L8.49507955,14.3762376 C8.4974426,14.0297066 8.35677319,13.6975377 8.10623762,13.4581188 Z M3.82930693,27.1188119 C2.35247525,27.1188119 2.55178218,24.8316832 4.01227723,24.8316832 C5.47277228,24.8316832 5.28980198,27.1188119 3.82930693,27.1188119 Z" id="Shape" fill="#3E66FD"></path>
                                </g>
                            </g>
                            <circle id="Oval" fill="#8192FE" cx="407" cy="229" r="185"></circle>
                            <g id="Oval">
                                <use fill="black" fill-opacity="1" filter="url(#filter-8)" xlink:href="#path-7"></use>
                                <use fill="#FFFFFF" fill-rule="evenodd" xlink:href="#path-7"></use>
                            </g>
                            <g id="Group-7" transform="translate(566.000000, 290.000000)">
                                <g id="Oval-Copy-7">
                                    <use fill="black" fill-opacity="1" filter="url(#filter-10)" xlink:href="#path-9">
                                    </use>
                                    <use fill="#FFFFFF" fill-rule="evenodd" xlink:href="#path-9"></use>
                                </g>
                                <g id="pie-chart" transform="translate(12.000000, 12.000000)" stroke-linecap="round" stroke-linejoin="round" stroke-width="2">
                                    <path d="M12.4865,9.0285 C11.348902,11.7187739 8.5564854,13.3198282 5.66005221,12.9424982 C2.76361901,12.5651682 0.474592794,10.302134 0.064211593,7.41019857 C-0.346169607,4.51826316 1.22289228,1.70774544 3.9,0.5395" id="Path" stroke="#FF8C7B"></path>
                                    <path d="M13,6.5 C13,4.77609282 12.3151805,3.12279238 11.0961941,1.90380592 C9.87720762,0.684819462 8.22390718,0 6.5,0 L6.5,6.5 L13,6.5 Z" id="Path" stroke="#85CEEC"></path>
                                </g>
                            </g>
                            <circle id="Oval-Copy-8" fill="#E6E9FE" cx="271" cy="431" r="13"></circle>
                            <circle id="Oval-Copy-10" fill="#F6CDFF" cx="232.5" cy="77.5" r="6.5"></circle>
                            <circle id="Oval-Copy-11" fill="#E8EBFF" cx="621.5" cy="185.5" r="6.5"></circle>
                            <g id="Group-2-Copy" transform="translate(277.000000, 34.000000)">
                                <g id="Group-3" transform="translate(219.000000, 356.000000)">
                                    <circle id="Oval-Copy" fill="#8192FE" cx="20.5" cy="20.5" r="20.5"></circle>
                                    <g id="x" transform="translate(15.033333, 15.033333)" stroke="#FFFFFF" stroke-linecap="round" stroke-linejoin="round" stroke-width="2">
                                        <line x1="10.9333333" y1="0" x2="0" y2="10.9333333" id="Path"></line>
                                        <line x1="0" y1="0" x2="10.9333333" y2="10.9333333" id="Path"></line>
                                    </g>
                                </g>
                                <g id="Rectangle-Copy">
                                    <use fill="black" fill-opacity="1" filter="url(#filter-12)" xlink:href="#path-11">
                                    </use>
                                    <use fill="#FFFFFF" fill-rule="evenodd" xlink:href="#path-11"></use>
                                </g>
                                <rect id="Rectangle" fill="#F7F9FF" x="28" y="125" width="205" height="105" rx="7">
                                </rect>
                                <rect id="Rectangle" fill="#DADBF8" x="49" y="141" width="157" height="4" rx="2"></rect>
                                <rect id="Rectangle-Copy-2" fill="#DADBF8" x="49" y="151" width="147" height="4" rx="2">
                                </rect>
                                <rect id="Rectangle-Copy-3" fill="#DADBF8" x="49" y="161" width="87" height="4" rx="2">
                                </rect>
                                <rect id="Rectangle" fill="#3E66FD" x="98" y="257" width="65" height="25" rx="12.5">
                                </rect>
                                <text id="Send" font-family="Poppins-SemiBold, Poppins" font-size="10" font-weight="500" fill="#FFFFFF">
                                    <tspan x="118.25" y="273">Send</tspan>
                                </text>
                                <path d="M32.485,48 L32.485,42.781 L37.619,42.781 L37.619,48 L40.033,48 L40.033,35.998 L37.619,35.998 L37.619,40.86 L32.485,40.86 L32.485,35.998 L30.088,35.998 L30.088,48 L32.485,48 Z M46.561,48.119 C47.479,48.119 48.3035,47.9235 49.0345,47.5325 C49.7655,47.1415 50.3406667,46.5833333 50.76,45.858 C51.1793333,45.1326667 51.389,44.277 51.389,43.291 C51.389,42.305 51.1793333,41.4465 50.76,40.7155 C50.3406667,39.9845 49.7655,39.4263333 49.0345,39.041 C48.3035,38.6556667 47.479,38.463 46.561,38.463 C45.643,38.463 44.8185,38.6556667 44.0875,39.041 C43.3565,39.4263333 42.7813333,39.9845 42.362,40.7155 C41.9426667,41.4465 41.733,42.305 41.733,43.291 C41.733,44.277 41.9426667,45.1326667 42.362,45.858 C42.7813333,46.5833333 43.3565,47.1415 44.0875,47.5325 C44.8185,47.9235 45.643,48.119 46.561,48.119 Z M46.561,46.045 C45.8923333,46.045 45.3256667,45.8098333 44.861,45.3395 C44.3963333,44.8691667 44.164,44.1863333 44.164,43.291 C44.164,42.3956667 44.3963333,41.7128333 44.861,41.2425 C45.3256667,40.7721667 45.8923333,40.537 46.561,40.537 C47.2296667,40.537 47.7963333,40.7721667 48.261,41.2425 C48.7256667,41.7128333 48.958,42.3956667 48.958,43.291 C48.958,44.1863333 48.7256667,44.8691667 48.261,45.3395 C47.7963333,45.8098333 47.2296667,46.045 46.561,46.045 Z M57.288,48 L59.362,41.149 L61.385,48 L64.037,48 L66.57,38.582 L64.326,38.582 L62.779,45.858 L60.671,38.582 L58.138,38.582 L56.047,45.858 L54.517,38.582 L52.12,38.582 L54.636,48 L57.288,48 Z M67.522,38.208 C68.2246667,38.208 68.7545,38.0011667 69.1115,37.5875 C69.4685,37.1738333 69.647,36.5986667 69.647,35.862 C69.647,35.2386667 69.5563333,34.6266667 69.375,34.026 L69.375,34.026 L67.403,34.026 L67.403,35.879 L68.389,35.879 L68.389,36.202 C68.389,36.5646667 68.3181667,36.831 68.1765,37.001 C68.0348333,37.171 67.8166667,37.256 67.522,37.256 L67.522,37.256 L67.522,38.208 Z M75.376,48.119 C76.4413333,48.119 77.2885,47.8696667 77.9175,47.371 C78.5465,46.8723333 78.861,46.2206667 78.861,45.416 C78.861,44.77 78.6995,44.2571667 78.3765,43.8775 C78.0535,43.4978333 77.6681667,43.2201667 77.2205,43.0445 C76.7728333,42.8688333 76.192,42.7016667 75.478,42.543 C74.968,42.4183333 74.577,42.3106667 74.305,42.22 C74.033,42.1293333 73.8063333,42.0046667 73.625,41.846 C73.4436667,41.6873333 73.353,41.4776667 73.353,41.217 C73.353,40.8883333 73.4663333,40.6276667 73.693,40.435 C73.9196667,40.2423333 74.237,40.146 74.645,40.146 C75.155,40.146 75.5686667,40.282 75.886,40.554 C76.2033333,40.826 76.4073333,41.1886667 76.498,41.642 L76.498,41.642 L78.742,41.642 C78.572,40.6786667 78.1413333,39.908 77.45,39.33 C76.7586667,38.752 75.8406667,38.463 74.696,38.463 C73.5966667,38.463 72.7353333,38.718 72.112,39.228 C71.4886667,39.738 71.177,40.401 71.177,41.217 C71.177,41.8516667 71.3328333,42.3503333 71.6445,42.713 C71.9561667,43.0756667 72.3301667,43.3391667 72.7665,43.5035 C73.2028333,43.6678333 73.7723333,43.8293333 74.475,43.988 C74.985,44.1126667 75.3788333,44.2203333 75.6565,44.311 C75.9341667,44.4016667 76.1665,44.532 76.3535,44.702 C76.5405,44.872 76.634,45.093 76.634,45.365 C76.634,45.6823333 76.5263333,45.9401667 76.311,46.1385 C76.0956667,46.3368333 75.784,46.436 75.376,46.436 C74.8093333,46.436 74.3503333,46.3028333 73.999,46.0365 C73.6476667,45.7701667 73.4436667,45.4046667 73.387,44.94 L73.387,44.94 L71.092,44.94 C71.2506667,45.96 71.6983333,46.7448333 72.435,47.2945 C73.1716667,47.8441667 74.152,48.119 75.376,48.119 Z M87.786,52.488 L93.549,38.582 L90.914,38.582 L88.534,44.974 L85.967,38.582 L83.298,38.582 L87.259,47.728 L85.134,52.488 L87.786,52.488 Z M99.023,48.119 C99.941,48.119 100.7655,47.9235 101.4965,47.5325 C102.2275,47.1415 102.802667,46.5833333 103.222,45.858 C103.641333,45.1326667 103.851,44.277 103.851,43.291 C103.851,42.305 103.641333,41.4465 103.222,40.7155 C102.802667,39.9845 102.2275,39.4263333 101.4965,39.041 C100.7655,38.6556667 99.941,38.463 99.023,38.463 C98.105,38.463 97.2805,38.6556667 96.5495,39.041 C95.8185,39.4263333 95.2433333,39.9845 94.824,40.7155 C94.4046667,41.4465 94.195,42.305 94.195,43.291 C94.195,44.277 94.4046667,45.1326667 94.824,45.858 C95.2433333,46.5833333 95.8185,47.1415 96.5495,47.5325 C97.2805,47.9235 98.105,48.119 99.023,48.119 Z M99.023,46.045 C98.3543333,46.045 97.7876667,45.8098333 97.323,45.3395 C96.8583333,44.8691667 96.626,44.1863333 96.626,43.291 C96.626,42.3956667 96.8583333,41.7128333 97.323,41.2425 C97.7876667,40.7721667 98.3543333,40.537 99.023,40.537 C99.6916667,40.537 100.258333,40.7721667 100.723,41.2425 C101.187667,41.7128333 101.42,42.3956667 101.42,43.291 C101.42,44.1863333 101.187667,44.8691667 100.723,45.3395 C100.258333,45.8098333 99.6916667,46.045 99.023,46.045 Z M108.951,48.119 C109.699,48.119 110.359167,47.9405 110.9315,47.5835 C111.503833,47.2265 111.914667,46.7306667 112.164,46.096 L112.164,46.096 L112.164,48 L114.561,48 L114.561,38.582 L112.164,38.582 L112.164,43.58 C112.164,44.4073333 111.96,45.042 111.552,45.484 C111.144,45.926 110.594333,46.147 109.903,46.147 C109.245667,46.147 108.724333,45.9401667 108.339,45.5265 C107.953667,45.1128333 107.761,44.532 107.761,43.784 L107.761,43.784 L107.761,38.582 L105.381,38.582 L105.381,44.056 C105.381,45.3366667 105.704,46.334 106.35,47.048 C106.996,47.762 107.863,48.119 108.951,48.119 Z M119.134,48 L119.134,43.461 C119.134,41.829 120.012333,41.013 121.769,41.013 L121.769,41.013 L122.466,41.013 L122.466,38.446 C121.752,38.446 121.106,38.6188333 120.528,38.9645 C119.95,39.3101667 119.485333,39.7833333 119.134,40.384 L119.134,40.384 L119.134,38.582 L116.737,38.582 L116.737,48 L119.134,48 Z M131.731,48.119 C132.513,48.119 133.224167,47.9716667 133.8645,47.677 C134.504833,47.3823333 135.029,46.9743333 135.437,46.453 C135.845,45.9316667 136.111333,45.3423333 136.236,44.685 L136.236,44.685 L133.703,44.685 C133.601,45.1496667 133.365833,45.518 132.9975,45.79 C132.629167,46.062 132.167333,46.198 131.612,46.198 C130.988667,46.198 130.467333,45.9996667 130.048,45.603 C129.628667,45.2063333 129.402,44.5886667 129.368,43.75 L129.368,43.75 L136.27,43.75 C136.326667,43.444 136.355,43.172 136.355,42.934 C136.355,42.0726667 136.165167,41.3048333 135.7855,40.6305 C135.405833,39.9561667 134.8675,39.4263333 134.1705,39.041 C133.4735,38.6556667 132.660333,38.463 131.731,38.463 C130.813,38.463 129.997,38.6556667 129.283,39.041 C128.569,39.4263333 128.013667,39.9845 127.617,40.7155 C127.220333,41.4465 127.022,42.305 127.022,43.291 C127.022,44.277 127.220333,45.1326667 127.617,45.858 C128.013667,46.5833333 128.569,47.1415 129.283,47.5325 C129.997,47.9235 130.813,48.119 131.731,48.119 Z M133.941,42.696 L129.368,42.696 C129.413333,41.9253333 129.657,41.3416667 130.099,40.945 C130.541,40.5483333 131.085,40.35 131.731,40.35 C132.365667,40.35 132.901167,40.5483333 133.3375,40.945 C133.773833,41.3416667 133.975,41.9253333 133.941,42.696 L133.941,42.696 Z M139.84,48 L141.642,44.974 L143.784,48 L146.47,48 L143.189,43.359 L146.351,38.582 L143.716,38.582 L141.914,41.557 L139.823,38.582 L137.137,38.582 L140.316,43.087 L137.205,48 L139.84,48 Z M150.091,52.488 L150.091,46.028 C150.329,46.6626667 150.7285,47.1698333 151.2895,47.5495 C151.8505,47.9291667 152.527667,48.119 153.321,48.119 C154.114333,48.119 154.828333,47.9263333 155.463,47.541 C156.097667,47.1556667 156.5935,46.5975 156.9505,45.8665 C157.3075,45.1355 157.486,44.277 157.486,43.291 C157.486,42.305 157.3075,41.4465 156.9505,40.7155 C156.5935,39.9845 156.097667,39.4263333 155.463,39.041 C154.828333,38.6556667 154.114333,38.463 153.321,38.463 C152.527667,38.463 151.8505,38.65 151.2895,39.024 C150.7285,39.398 150.329,39.9023333 150.091,40.537 L150.091,40.537 L150.091,38.582 L147.694,38.582 L147.694,52.488 L150.091,52.488 Z M152.573,46.011 C151.847667,46.011 151.249833,45.7645 150.7795,45.2715 C150.309167,44.7785 150.074,44.1183333 150.074,43.291 C150.074,42.4523333 150.309167,41.7865 150.7795,41.2935 C151.249833,40.8005 151.847667,40.554 152.573,40.554 C153.321,40.554 153.921667,40.7976667 154.375,41.285 C154.828333,41.7723333 155.055,42.441 155.055,43.291 C155.055,44.141 154.828333,44.8068333 154.375,45.2885 C153.921667,45.7701667 153.321,46.011 152.573,46.011 Z M163.419,48.119 C164.201,48.119 164.912167,47.9716667 165.5525,47.677 C166.192833,47.3823333 166.717,46.9743333 167.125,46.453 C167.533,45.9316667 167.799333,45.3423333 167.924,44.685 L167.924,44.685 L165.391,44.685 C165.289,45.1496667 165.053833,45.518 164.6855,45.79 C164.317167,46.062 163.855333,46.198 163.3,46.198 C162.676667,46.198 162.155333,45.9996667 161.736,45.603 C161.316667,45.2063333 161.09,44.5886667 161.056,43.75 L161.056,43.75 L167.958,43.75 C168.014667,43.444 168.043,43.172 168.043,42.934 C168.043,42.0726667 167.853167,41.3048333 167.4735,40.6305 C167.093833,39.9561667 166.5555,39.4263333 165.8585,39.041 C165.1615,38.6556667 164.348333,38.463 163.419,38.463 C162.501,38.463 161.685,38.6556667 160.971,39.041 C160.257,39.4263333 159.701667,39.9845 159.305,40.7155 C158.908333,41.4465 158.71,42.305 158.71,43.291 C158.71,44.277 158.908333,45.1326667 159.305,45.858 C159.701667,46.5833333 160.257,47.1415 160.971,47.5325 C161.685,47.9235 162.501,48.119 163.419,48.119 Z M165.629,42.696 L161.056,42.696 C161.101333,41.9253333 161.345,41.3416667 161.787,40.945 C162.229,40.5483333 162.773,40.35 163.419,40.35 C164.053667,40.35 164.589167,40.5483333 165.0255,40.945 C165.461833,41.3416667 165.663,41.9253333 165.629,42.696 L165.629,42.696 Z M172.14,48 L172.14,43.461 C172.14,41.829 173.018333,41.013 174.775,41.013 L174.775,41.013 L175.472,41.013 L175.472,38.446 C174.758,38.446 174.112,38.6188333 173.534,38.9645 C172.956,39.3101667 172.491333,39.7833333 172.14,40.384 L172.14,40.384 L172.14,38.582 L169.743,38.582 L169.743,48 L172.14,48 Z M178.005,37.171 C178.447,37.171 178.804,37.0491667 179.076,36.8055 C179.348,36.5618333 179.484,36.253 179.484,35.879 C179.484,35.4936667 179.348,35.1791667 179.076,34.9355 C178.804,34.6918333 178.447,34.57 178.005,34.57 C177.563,34.57 177.206,34.6918333 176.934,34.9355 C176.662,35.1791667 176.526,35.4936667 176.526,35.879 C176.526,36.253 176.662,36.5618333 176.934,36.8055 C177.206,37.0491667 177.563,37.171 178.005,37.171 Z M179.195,48 L179.195,38.582 L176.798,38.582 L176.798,48 L179.195,48 Z M185.604,48.119 C186.386,48.119 187.097167,47.9716667 187.7375,47.677 C188.377833,47.3823333 188.902,46.9743333 189.31,46.453 C189.718,45.9316667 189.984333,45.3423333 190.109,44.685 L190.109,44.685 L187.576,44.685 C187.474,45.1496667 187.238833,45.518 186.8705,45.79 C186.502167,46.062 186.040333,46.198 185.485,46.198 C184.861667,46.198 184.340333,45.9996667 183.921,45.603 C183.501667,45.2063333 183.275,44.5886667 183.241,43.75 L183.241,43.75 L190.143,43.75 C190.199667,43.444 190.228,43.172 190.228,42.934 C190.228,42.0726667 190.038167,41.3048333 189.6585,40.6305 C189.278833,39.9561667 188.7405,39.4263333 188.0435,39.041 C187.3465,38.6556667 186.533333,38.463 185.604,38.463 C184.686,38.463 183.87,38.6556667 183.156,39.041 C182.442,39.4263333 181.886667,39.9845 181.49,40.7155 C181.093333,41.4465 180.895,42.305 180.895,43.291 C180.895,44.277 181.093333,45.1326667 181.49,45.858 C181.886667,46.5833333 182.442,47.1415 183.156,47.5325 C183.87,47.9235 184.686,48.119 185.604,48.119 Z M187.814,42.696 L183.241,42.696 C183.286333,41.9253333 183.53,41.3416667 183.972,40.945 C184.414,40.5483333 184.958,40.35 185.604,40.35 C186.238667,40.35 186.774167,40.5483333 187.2105,40.945 C187.646833,41.3416667 187.848,41.9253333 187.814,42.696 L187.814,42.696 Z M194.325,48 L194.325,43.002 C194.325,42.1746667 194.529,41.54 194.937,41.098 C195.345,40.656 195.889,40.435 196.569,40.435 C197.237667,40.435 197.764667,40.6418333 198.15,41.0555 C198.535333,41.4691667 198.728,42.05 198.728,42.798 L198.728,42.798 L198.728,48 L201.108,48 L201.108,42.526 C201.108,41.234 200.785,40.231 200.139,39.517 C199.493,38.803 198.626,38.446 197.538,38.446 C196.79,38.446 196.129833,38.6245 195.5575,38.9815 C194.985167,39.3385 194.574333,39.8343333 194.325,40.469 L194.325,40.469 L194.325,38.582 L191.928,38.582 L191.928,48 L194.325,48 Z M207.449,48.119 C208.661667,48.119 209.673167,47.7903333 210.4835,47.133 C211.293833,46.4756667 211.801,45.5803333 212.005,44.447 L212.005,44.447 L209.472,44.447 C209.37,44.9456667 209.137667,45.3395 208.775,45.6285 C208.412333,45.9175 207.953333,46.062 207.398,46.062 C206.763333,46.062 206.2335,45.8268333 205.8085,45.3565 C205.3835,44.8861667 205.171,44.1976667 205.171,43.291 C205.171,42.3843333 205.3835,41.6958333 205.8085,41.2255 C206.2335,40.7551667 206.763333,40.52 207.398,40.52 C207.953333,40.52 208.412333,40.6645 208.775,40.9535 C209.137667,41.2425 209.37,41.6363333 209.472,42.135 L209.472,42.135 L212.005,42.135 C211.801,41.0016667 211.293833,40.1063333 210.4835,39.449 C209.673167,38.7916667 208.661667,38.463 207.449,38.463 C206.531,38.463 205.715,38.6556667 205.001,39.041 C204.287,39.4263333 203.731667,39.9845 203.335,40.7155 C202.938333,41.4465 202.74,42.305 202.74,43.291 C202.74,44.277 202.938333,45.1326667 203.335,45.858 C203.731667,46.5833333 204.287,47.1415 205.001,47.5325 C205.715,47.9235 206.531,48.119 207.449,48.119 Z M217.938,48.119 C218.72,48.119 219.431167,47.9716667 220.0715,47.677 C220.711833,47.3823333 221.236,46.9743333 221.644,46.453 C222.052,45.9316667 222.318333,45.3423333 222.443,44.685 L222.443,44.685 L219.91,44.685 C219.808,45.1496667 219.572833,45.518 219.2045,45.79 C218.836167,46.062 218.374333,46.198 217.819,46.198 C217.195667,46.198 216.674333,45.9996667 216.255,45.603 C215.835667,45.2063333 215.609,44.5886667 215.575,43.75 L215.575,43.75 L222.477,43.75 C222.533667,43.444 222.562,43.172 222.562,42.934 C222.562,42.0726667 222.372167,41.3048333 221.9925,40.6305 C221.612833,39.9561667 221.0745,39.4263333 220.3775,39.041 C219.6805,38.6556667 218.867333,38.463 217.938,38.463 C217.02,38.463 216.204,38.6556667 215.49,39.041 C214.776,39.4263333 214.220667,39.9845 213.824,40.7155 C213.427333,41.4465 213.229,42.305 213.229,43.291 C213.229,44.277 213.427333,45.1326667 213.824,45.858 C214.220667,46.5833333 214.776,47.1415 215.49,47.5325 C216.204,47.9235 217.02,48.119 217.938,48.119 Z M220.148,42.696 L215.575,42.696 C215.620333,41.9253333 215.864,41.3416667 216.306,40.945 C216.748,40.5483333 217.292,40.35 217.938,40.35 C218.572667,40.35 219.108167,40.5483333 219.5445,40.945 C219.980833,41.3416667 220.182,41.9253333 220.148,42.696 L220.148,42.696 Z M227.492,44.056 L227.492,42.339 C228.704667,42.3163333 229.670833,42.0046667 230.3905,41.404 C231.110167,40.8033333 231.47,39.9363333 231.47,38.803 C231.47,37.681 231.118667,36.814 230.416,36.202 C229.713333,35.59 228.784,35.284 227.628,35.284 C226.778,35.284 226.044167,35.4398333 225.4265,35.7515 C224.808833,36.0631667 224.341333,36.4881667 224.024,37.0265 C223.706667,37.5648333 223.559333,38.174 223.582,38.854 L223.582,38.854 L225.843,38.854 C225.843,38.378 225.996,37.9898333 226.302,37.6895 C226.608,37.3891667 227.021667,37.239 227.543,37.239 C228.019,37.239 228.398667,37.3778333 228.682,37.6555 C228.965333,37.9331667 229.107,38.3213333 229.107,38.82 C229.107,39.568 228.852,40.0808333 228.342,40.3585 C227.832,40.6361667 227.118,40.775 226.2,40.775 L226.2,40.775 L225.231,40.775 L225.231,44.056 L227.492,44.056 Z M227.679,48 L227.679,45.501 L225.095,45.501 L225.095,48 L227.679,48 Z" id="How’syourexperience?" fill="#2A2D37" fill-rule="nonzero"></path>
                                <text id="Widget-by-feedback-i" font-family="Poppins-Regular, Poppins" font-size="8" font-weight="normal" fill="#4E5363">
                                    <tspan x="79.168" y="297">Widget by feedback insta</tspan>
                                </text>
                                <g id="Group-15" opacity="0.773553757" transform="translate(28.000000, 72.000000)">
                                    <g id="Group-11">
                                        <ellipse id="Oval" fill="#FFE267" cx="17.0939266" cy="17" rx="17.0939266" ry="17"></ellipse>
                                        <path d="M11.6238701,24.48 C12.7045481,22.7409 14.9772198,21.668268 17.3818567,21.757416 C19.5895715,21.839288 21.5808771,22.88846 22.5639831,24.48" id="Path" stroke="#77513D" stroke-width="2" stroke-linecap="round" stroke-linejoin="round"></path>
                                        <path d="M12.9913842,15.589136 C12.9913842,16.715692 12.0718677,17.629136 10.940113,17.629136 C9.80828993,17.629136 8.88884181,16.715692 8.88884181,15.589136 C8.88884181,14.463532 9.80828993,13.549136 10.940113,13.549136 C12.0718677,13.549136 12.9913842,14.4636 12.9913842,15.589136" id="Path" fill="#77513D" fill-rule="nonzero"></path>
                                        <path d="M25.2990113,15.589136 C25.2990113,16.715692 24.3795632,17.629136 23.2477401,17.629136 C22.115917,17.629136 21.1964689,16.715692 21.1964689,15.589136 C21.1964689,14.463532 22.115917,13.549136 23.2477401,13.549136 C24.3795632,13.549136 25.2990113,14.4636 25.2990113,15.589136" id="Path" fill="#77513D" fill-rule="nonzero"></path>
                                        <line x1="8.20508475" y1="9.52" x2="12.9913842" y2="12.24" id="Path" stroke="#77513D" stroke-width="2" stroke-linecap="round" stroke-linejoin="round"></line>
                                        <line x1="25.9827684" y1="9.52" x2="21.1964689" y2="12.24" id="Path" stroke="#77513D" stroke-width="2" stroke-linecap="round" stroke-linejoin="round"></line>
                                    </g>
                                    <g id="Group-13" transform="translate(43.076695, 0.000000)">
                                        <ellipse id="Oval-Copy-2" fill="#FFE267" cx="17.0939266" cy="17" rx="17.0939266" ry="17"></ellipse>
                                        <path d="M12.9913842,12.92 C12.9913842,14.046624 12.0718677,14.96 10.940113,14.96 C9.80828993,14.96 8.88884181,14.046556 8.88884181,12.92 C8.88884181,11.794464 9.80828993,10.88 10.940113,10.88 C12.0718677,10.88 12.9913842,11.794464 12.9913842,12.92" id="Path" fill="#77513D" fill-rule="nonzero"></path>
                                        <path d="M25.2990113,12.92 C25.2990113,14.046624 24.3795632,14.96 23.2477401,14.96 C22.115917,14.96 21.1964689,14.046556 21.1964689,12.92 C21.1964689,11.794464 22.115917,10.88 23.2477401,10.88 C24.3795632,10.88 25.2990113,11.794464 25.2990113,12.92" id="Path" fill="#77513D" fill-rule="nonzero"></path>
                                        <path d="M11.6238701,23.12 C12.7045481,21.3809 14.9772198,20.308268 17.3818567,20.397416 C19.5895715,20.479288 21.5808771,21.52846 22.5639831,23.12" id="Path" stroke="#77513D" stroke-width="2" stroke-linecap="round" stroke-linejoin="round"></path>
                                    </g>
                                    <g id="Group-10" transform="translate(85.469633, 0.000000)">
                                        <ellipse id="Oval-Copy-3" fill="#FFE267" cx="17.0939266" cy="17" rx="17.0939266" ry="17"></ellipse>
                                        <line x1="12.9913842" y1="22.44" x2="21.1964689" y2="22.44" id="Path" stroke="#77513D" stroke-width="2" stroke-linecap="round" stroke-linejoin="round"></line>
                                        <path d="M12.9913842,14.28 C12.9913842,15.406624 12.0718677,16.32 10.940113,16.32 C9.80828993,16.32 8.88884181,15.406556 8.88884181,14.28 C8.88884181,13.154464 9.80828993,12.24 10.940113,12.24 C12.0718677,12.24 12.9913842,13.154464 12.9913842,14.28" id="Path" fill="#77513D" fill-rule="nonzero"></path>
                                        <path d="M25.2990113,14.28 C25.2990113,15.406624 24.3795632,16.32 23.2477401,16.32 C22.115917,16.32 21.1964689,15.406556 21.1964689,14.28 C21.1964689,13.154464 22.115917,12.24 23.2477401,12.24 C24.3795632,12.24 25.2990113,13.154464 25.2990113,14.28" id="Path" fill="#77513D" fill-rule="nonzero"></path>
                                    </g>
                                    <g id="Group-12" transform="translate(128.546328, 0.000000)">
                                        <ellipse id="Oval-Copy-4" fill="#FFE267" cx="17.0939266" cy="17" rx="17.0939266" ry="17"></ellipse>
                                        <path d="M23.8049337,21.711924 C21.8223801,22.82454 19.5326829,23.459456 17.0939266,23.459456 C14.6551702,23.459456 12.3655413,22.824608 10.3829194,21.711924" id="Path" stroke="#77513D" stroke-width="2" stroke-linecap="round" stroke-linejoin="round"></path>
                                        <path d="M12.9913842,12.24 C12.9913842,13.366624 12.0718677,14.28 10.940113,14.28 C9.80828993,14.28 8.88884181,13.366556 8.88884181,12.24 C8.88884181,11.114464 9.80828993,10.2 10.940113,10.2 C12.0718677,10.2 12.9913842,11.114464 12.9913842,12.24" id="Path" fill="#77513D" fill-rule="nonzero"></path>
                                        <path d="M25.2990113,12.24 C25.2990113,13.366624 24.3795632,14.28 23.2477401,14.28 C22.115917,14.28 21.1964689,13.366556 21.1964689,12.24 C21.1964689,11.114464 22.115917,10.2 23.2477401,10.2 C24.3795632,10.2 25.2990113,11.114464 25.2990113,12.24" id="Path" fill="#77513D" fill-rule="nonzero"></path>
                                    </g>
                                    <g id="Group-14" transform="translate(170.939266, 0.000000)">
                                        <ellipse id="Oval-Copy-5" fill="#FFE267" cx="17.0939266" cy="17" rx="17.0939266" ry="17"></ellipse>
                                        <path d="M23.2477401,21.76 C21.3287945,23.0588241 19.1125596,23.8 16.752048,23.8 C14.3915365,23.8 12.1753677,23.0589035 10.2563559,21.76" id="Path" stroke="#77513D" stroke-width="2" stroke-linecap="round" stroke-linejoin="round"></path>
                                        <path d="M26.9823021,10.1892432 C26.5477417,9.75650798 25.957725,9.51388652 25.3421225,9.51478067 C24.72652,9.51567976 24.1357907,9.76002097 23.699962,10.1940239 L23.2521024,10.6397988 L22.8055455,10.1953266 C21.9004724,9.29447903 20.4309188,9.29661944 19.5232054,10.2001074 C18.6154921,11.1035953 18.6133517,12.5662982 19.5184247,13.4671459 L19.9649816,13.911618 L23.242541,17.1738759 L26.5296618,13.9020566 L26.9775214,13.4562818 C27.4135541,13.0224819 27.6590357,12.4345047 27.6599347,11.8217721 C27.6608289,11.2090394 27.4170671,10.6217748 26.9823021,10.1892432 Z" id="Path" fill="#F64F37" transform="translate(23.250476, 13.344328) rotate(16.000000) translate(-23.250476, -13.344328) ">
                                        </path>
                                        <path d="M14.9781415,10.1892432 C14.5435811,9.75650798 13.9535643,9.51388652 13.3379619,9.51478067 C12.7223594,9.51567976 12.1316301,9.76002097 11.6958014,10.1940239 L11.2479418,10.6397988 L10.8013848,10.1953266 C9.89631181,9.29447903 8.42675813,9.29661944 7.51904481,10.2001074 C6.61133149,11.1035953 6.60919109,12.5662982 7.51426409,13.4671459 L7.96082102,13.911618 L11.2383804,17.1738759 L14.5255011,13.9020566 L14.9733608,13.4562818 C15.4093935,13.0224819 15.654875,12.4345047 15.6557741,11.8217721 C15.6566683,11.2090394 15.4129064,10.6217748 14.9781415,10.1892432 Z" id="Path-Copy" fill="#F64F37" transform="translate(11.246316, 13.344328) scale(-1, 1) rotate(16.000000) translate(-11.246316, -13.344328) ">
                                        </path>
                                        <path d="M18.6882164,31.0705934 L17.2528038,24.5857102 L18.6882164,17.473994 C16.144608,19.8234903 14.8728038,22.1940624 14.8728038,24.5857102 C14.8728038,26.977358 16.144608,29.1389857 18.6882164,31.0705934 Z" id="Oval" fill="#77513D" transform="translate(16.780510, 24.272294) rotate(-90.000000) translate(-16.780510, -24.272294) ">
                                        </path>
                                    </g>
                                </g>
                            </g>
                            <g id="Group-5" transform="translate(624.000000, 92.000000)">
                                <circle id="Oval" stroke="#FF8F6D" cx="50" cy="50" r="49.5"></circle>
                                <g id="Group" transform="translate(16.000000, 16.000000)">
                                    <mask id="mask-14" fill="white">
                                        <use xlink:href="#path-13"></use>
                                    </mask>
                                    <use id="Mask" fill="#FFB49E" xlink:href="#path-13"></use>
                                    <g mask="url(#mask-14)">
                                        <g transform="translate(14.000000, 9.000000)">
                                            <g id="Group-112" stroke="none" stroke-width="1" fill="none" fill-rule="evenodd" transform="translate(4.000000, 35.000000)">
                                                <path d="M26.362875,21.8503284 L26.362875,0.467373134 L6.3339375,0.467373134 L6.3339375,21.8503284 L0.371765625,24.5251642 C0.371765625,24.5251642 1.77014063,33.3874925 16.5587813,33.5838806 C31.3469063,33.7802687 32.8324219,24.9610746 32.8324219,24.9610746 L26.362875,21.8503284" id="Fill-109" fill="#FFDCBF"></path>
                                            </g>
                                            <path d="M26.1164865,1.50417282 C32.9464908,4.61175249 34.8590563,8.77881602 35.6726409,11.7307856 C35.9431513,12.7122076 36.0509449,14.2570101 35.9775426,15.1742365 L33.2477994,28 L22.5921509,10.2553144 L12.280415,11.0734229 C12.280415,11.0734229 11.3487619,11.2615754 10.1088347,11.9906982 C9.30990094,14.6067986 7.71959757,17.9787564 4.83002374,19.864729 L4.86678566,28 L2.29257315,15.2558933 C2.14782182,14.2179792 1.74487928,12.616171 2.23816308,11.1109131 C3.0532876,8.62063811 6.05046144,3.83832413 11.1732213,6.02765021 C11.1732213,6.02765021 14.8325555,-3.63044651 26.1164865,1.50417282 Z" id="Fill-112" stroke="none" fill="#3C34B1" fill-rule="evenodd"></path>
                                            <path d="M33.3957674,27.5333051 C33.3957674,27.5333051 34.9822796,25.1533656 38.2527958,26.3236216 C41.5233121,27.4944489 40.0439803,34.9896868 35.1372976,35.945091 C35.1372976,35.945091 33.3788123,36.3073675 32,35.170825 C32,35.170825 33.2062337,29.6343945 33.3957674,27.5333051" id="Fill-113" stroke="none" fill="#FFDCBF" fill-rule="evenodd"></path>
                                            <path d="M38,29.0554287 C38,29.0554287 35.660592,28.4856048 34,31" id="Stroke-114" stroke="#B183BB" stroke-width="1" fill="none" stroke-linecap="round" stroke-linejoin="round"></path>
                                            <path d="M6.60363207,27.5333051 C6.60363207,27.5333051 5.01833666,25.1533656 1.74722671,26.3236216 C-1.5232777,27.4944489 -0.0439512273,34.9896868 4.86210816,35.945091 C4.86210816,35.945091 6.62119264,36.3073675 8,35.170825 C8,35.170825 6.79377064,29.6343945 6.60363207,27.5333051" id="Fill-115" stroke="none" fill="#FFDCBF" fill-rule="evenodd"></path>
                                            <path d="M2,29.0554287 C2,29.0554287 4.3394958,28.4856048 6,31" id="Stroke-116" stroke="#B183BB" stroke-width="1" fill="none" stroke-linecap="round" stroke-linejoin="round"></path>
                                            <path d="M31.1045963,39.6468111 C28.7597104,44.3247794 24.8815311,46.8418511 19.7977774,46.9920332 C14.71351,47.1417079 10.9262496,45.2065917 7.89099643,39.1353803 C4.85574325,33.0641688 5.00111076,22.3327471 5.00111076,22.3327471 C5.00111076,22.3327471 5.00111076,8 19.3421555,8 C34.4470219,8 33.9985913,22.2581634 33.9985913,22.2581634 C34,26.2704599 33.6015274,34.664927 31.1045963,39.6468111 Z" id="Fill-117" stroke="none" fill="#FFDCBF" fill-rule="evenodd"></path>
                                            <path d="M10,41 C10,41 11.6875908,49.8899059 19.1393443,50.9110656 C27.7158124,52.0862609 30,41.2262063 30,41.2262063 C30,41.2262063 26.2103133,46.1564255 20.21685,46.1639657 C13.5323719,46.1725831 10,41 10,41" id="Fill-118" stroke="none" fill-opacity="0.446951486" fill="#64366E" fill-rule="evenodd"></path>
                                            <path d="M19,28 L19,31.8126693 C19,31.9765359 19.0335473,32.1334047 19.0944295,32.2768609 C19.3354732,32.8419383 20.0275419,33.1125224 20.6537585,32.9562368 L22,32.6197562" id="Stroke-119" stroke="#64456B" stroke-width="1" fill="none" stroke-linecap="round" stroke-linejoin="round"></path>
                                            <path d="M13.5002951,27 C12.6716506,27 12,26.3284815 12,25.5 C12,24.6721086 12.6716506,24 13.5002951,24 C14.3283494,24 15,24.6721086 15,25.5 C15,26.3284815 14.3283494,27 13.5002951,27 Z" id="Fill-120" stroke="none" fill="#64456B" fill-rule="evenodd"></path>
                                            <path d="M28,25.5 C28,26.3284815 27.3278914,27 26.5,27 C25.6715185,27 25,26.3284815 25,25.5 C25,24.6721086 25.6715185,24 26.5,24 C27.3278914,24 28,24.6721086 28,25.5" id="Fill-121" stroke="none" fill="#64456B" fill-rule="evenodd"></path>
                                            <path d="M21,19.4722193 L30,22 C30,22 29.5907894,19.2552252 25.9089473,18.2584265 C22.2271052,17.2610552 21,19.4722193 21,19.4722193" id="Fill-122" stroke="none" fill="#64456B" fill-rule="evenodd"></path>
                                            <path d="M16,19.4722193 L7,22 C7,22 7.4092106,19.2552252 11.0905261,18.2584265 C14.7728948,17.2610552 16,19.4722193 16,19.4722193" id="Fill-123" stroke="none" fill="#64456B" fill-rule="evenodd"></path>
                                            <path d="M15,35 C15,35 16.3306941,36 19.8297704,36 C23.0121404,36 25,35 25,35" id="Stroke-124" stroke="#64456B" stroke-width="1" fill="none" stroke-linecap="round" stroke-linejoin="round"></path>
                                            <path d="M25.2079761,16.3548682 C33.1115667,16.2001449 35,22 35,22 C35,22 33.6244254,9.03398746 33.2626413,9.15645573 C32.9013542,9.27842001 21.2367996,6 21.2367996,6 L11,9.15645573 C11,9.15645573 13.5777115,16.5826692 25.2079761,16.3548682 Z" id="Fill-126" stroke="none" fill="#3C34B1" fill-rule="evenodd"></path>
                                        </g>
                                    </g>
                                </g>
                            </g>
                            <g id="Group-5-Copy" transform="translate(135.000000, 279.000000)">
                                <circle id="Oval" stroke="#84D2D5" cx="39" cy="39" r="38.5"></circle>
                                <g id="Group" transform="translate(13.000000, 13.000000)">
                                    <mask id="mask-16" fill="white">
                                        <use xlink:href="#path-15"></use>
                                    </mask>
                                    <use id="Mask" fill="#ABDCDE" xlink:href="#path-15"></use>
                                    <g id="Group-2" mask="url(#mask-16)">
                                        <g transform="translate(14.000000, 9.000000)">
                                            <path d="M16.0648156,42.3142201 L16.0648156,34 L6.554801,34 L6.554801,42.4119775 C6.0682541,42.5608153 5.25762916,42.861133 4,43.4732174 L11.4168314,48 L19,43.4732174 C19,43.4732174 17.7960973,42.7558897 16.0648156,42.3142201" id="Fill-41" stroke="none" fill="#FEC6E9" fill-rule="evenodd"></path>
                                            <path d="M7,34.3753407 C7,34.3753407 8.56352333,40.4960823 12.738166,39.9676521 C16.5751538,39.4821459 15.9643841,31 15.9643841,31 L7,34.3753407" id="Fill-42" stroke="none" fill="#B183BB" fill-rule="evenodd"></path>
                                            <path d="M0.341633379,24.4051238 C1.73472276,23.1895403 2.7977277,25.0969429 2.7977277,25.0969429 L3.41965002,26.3898388 L3.88858611,28.1404387 L4,28.5992316 L3.61420861,28.8101166 C2.17247958,29.9520174 -1.051456,25.6210702 0.341633379,24.4051238 Z" id="Fill-43" stroke="none" fill="#FEC6E9" fill-rule="evenodd"></path>
                                            <path d="M1,26.0619343 C1,26.0619343 2.05910833,25.6397332 3,27" id="Stroke-44" stroke="#B183BB" stroke-width="0.3" fill="none" stroke-linecap="round" stroke-linejoin="round"></path>
                                            <path d="M20.337428,28.7599122 C21.5661899,30.0407896 24.9312256,25.8435622 23.7540794,24.4905701 C22.5773184,23.1372043 21.4248245,25.0133085 21.4248245,25.0133085 L20.7345608,26.291944 L20.1440617,28.0522163 L20,28.5140495 L20.337428,28.7599122" id="Fill-45" stroke="none" fill="#FEC6E9" fill-rule="evenodd"></path>
                                            <path d="M23,26.1087593 C23,26.1087593 22.0255715,25.5409789 21,27" id="Stroke-46" stroke="#B183BB" stroke-width="0.3" fill="none" stroke-linecap="round" stroke-linejoin="round"></path>
                                            <path d="M1,19.7190856 C1,26.6931337 5.92497026,30 12.000409,30 C18.0754387,30 23,26.6931337 23,19.7190856 C23,12.7445959 18.0754387,8 12.000409,8 C5.92497026,8 1,12.7445959 1,19.7190856" id="Fill-47" stroke="none" fill="#3B33B3" fill-rule="evenodd"></path>
                                            <path d="M2.00694203,19.6918348 C2.00694203,23.6060597 2.56803783,26.9837743 3.12790494,29.3813179 C3.67630441,31.7283996 5.21911307,33.3686116 7.40001461,34.6886937 L7.79687725,34.9292958 C10.1043325,36.3260799 13.0851027,36.3587792 15.4277801,35.0124569 C17.7905258,33.6548313 19.4447345,31.8648484 19.9538163,29.3461964 C20.8798291,24.7654713 20.9809902,19.6918348 20.9809902,19.6918348 C20.9809902,19.6918348 21.8619516,9.81100029 11.6295301,10.0027553 C1.3962896,10.1949141 2.00694203,19.6918348 2.00694203,19.6918348" id="Fill-48" stroke="none" fill="#FEC6E9" fill-rule="evenodd"></path>
                                            <path d="M11,25 L11,26.3990613 C11,26.4816749 11.0109795,26.561397 11.0314938,26.634097 C11.1118174,26.91994 11.3426755,27.0570786 11.5512858,26.9777696 L12,26.8075855" id="Stroke-49" stroke="#64456B" stroke-width="0.5" fill="none" stroke-linecap="round" stroke-linejoin="round"></path>
                                            <path d="M10,20.7365094 L5,22 C5,22 5.22751067,20.6279621 7.27269067,20.1290787 C9.31827333,19.6306295 10,20.7365094 10,20.7365094" id="Fill-50" stroke="none" fill="#64456B" fill-rule="evenodd"></path>
                                            <path d="M14,20.7365094 L19,22 C19,22 18.7727083,20.6279621 16.7270832,20.1290787 C14.6818751,19.6306295 14,20.7365094 14,20.7365094" id="Fill-51" stroke="none" fill="#64456B" fill-rule="evenodd"></path>
                                            <path d="M9,24.0002394 C9,24.5523103 8.55242417,25 8.00023883,25 C7.44757583,25 7,24.5523103 7,24.0002394 C7,23.4476897 7.44757583,23 8.00023883,23 C8.55242417,23 9,23.4476897 9,24.0002394" id="Fill-52" stroke="none" fill="#64456B" fill-rule="evenodd"></path>
                                            <path d="M17,24.0002394 C17,24.5523103 16.5521604,25 16.0002387,25 C15.4478396,25 15,24.5523103 15,24.0002394 C15,23.4476897 15.4478396,23 16.0002387,23 C16.5521604,23 17,23.4476897 17,24.0002394" id="Fill-53" stroke="none" fill="#64456B" fill-rule="evenodd"></path>
                                            <path d="M8,30 L15,30 C15,30 11.8977026,34.5 8,30" id="Fill-54" stroke="none" fill="#FFFFFF" fill-rule="evenodd"></path>
                                            <path d="M21.1301536,23 C21.1301536,23 17.236037,17.0390657 18.1346193,11 C18.1346193,11 21.0248967,12.6469376 21.7776786,16.8978113 C22.5304606,21.1491264 21.1301536,23 21.1301536,23" id="Fill-56" stroke="none" fill="#3B33B3" fill-rule="evenodd"></path>
                                            <path d="M2.50613999,23 C2.50613999,23 6.72841352,16.6573969 5.88978013,11 C5.88978013,11 2.96129416,12.9228781 2.25873404,16.9050967 C1.55653775,20.8877287 2,23 2,23" id="Fill-57" stroke="none" fill="#3B33B3" fill-rule="evenodd"></path>
                                            <path d="M21,13.8714975 C21,13.8714975 15.9141694,19.9155818 2,18.8808305 C2,18.8808305 4.1307596,10.0118404 10.8739357,9.06704872 C10.8739357,9.06704872 18.6598915,8.05769266 21,13.8714975" id="Fill-58" stroke="none" fill="#3B33B3" fill-rule="evenodd"></path>
                                            <g id="Group-62" stroke="none" stroke-width="1" fill="none" fill-rule="evenodd" transform="translate(14.000000, 0.000000)">
                                                <path d="M7.02058824,14.6271429 C3.21011765,14.6271429 0.121058824,11.412 0.121058824,7.446 C0.121058824,3.48042857 3.21011765,0.265285714 7.02058824,0.265285714 C10.8310588,0.265285714 13.9201176,3.48042857 13.9201176,7.446 C13.9201176,11.412 10.8310588,14.6271429 7.02058824,14.6271429 Z" id="Fill-59" fill="#3B33B3"></path>
                                            </g>
                                        </g>
                                    </g>
                                </g>
                            </g>
                            <g id="Group-5-Copy-2" transform="translate(635.000000, 301.000000)">
                                <circle id="Oval" stroke="#EAAEF7" fill="#FFFFFF" cx="30" cy="30" r="29.5"></circle>
                                <g id="Group" transform="translate(10.000000, 10.000000)">
                                    <mask id="mask-18" fill="white">
                                        <use xlink:href="#path-17"></use>
                                    </mask>
                                    <use id="Mask" fill="#EFD3F5" xlink:href="#path-17"></use>
                                    <g id="Group-2" mask="url(#mask-18)">
                                        <g transform="translate(10.769231, 11.538462)">
                                            <path d="M12.3575505,27.9340155 L12.3575505,21.5384615 L5.04215461,21.5384615 L5.04215461,28.0092134 C4.66788777,28.1237041 4.04433012,28.3547177 3.07692308,28.8255518 L8.78217802,32.3076923 L14.6153846,28.8255518 C14.6153846,28.8255518 13.6893056,28.2737613 12.3575505,27.9340155" id="Fill-41" stroke="none" fill="#CEADC1" fill-rule="evenodd"></path>
                                            <path d="M5.38461538,21.8271852 C5.38461538,21.8271852 6.58732564,26.5354479 9.79858926,26.1289631 C12.7501183,25.7554969 12.2802954,19.2307692 12.2802954,19.2307692 L5.38461538,21.8271852" id="Fill-42" stroke="none" fill="#A48497" fill-rule="evenodd"></path>
                                            <path d="M0.262794907,14.1577875 C1.33440212,13.2227233 2.15209823,14.689956 2.15209823,14.689956 L2.63050002,15.6844913 L2.99122008,17.0311067 L3.07692308,17.3840243 L2.78016047,17.5462436 C1.67113814,18.4246288 -0.808812309,15.0931309 0.262794907,14.1577875 Z" id="Fill-43" stroke="none" fill="#CEADC1" fill-rule="evenodd"></path>
                                            <path d="M0.769230769,15.4322572 C0.769230769,15.4322572 1.58392949,15.1074871 2.30769231,16.1538462" id="Stroke-44" stroke="#A48497" stroke-width="0.3" fill="none" stroke-linecap="round" stroke-linejoin="round"></path>
                                            <path d="M15.6441754,17.5076248 C16.5893769,18.4929151 19.1778658,15.2642786 18.2723688,14.2235154 C17.367168,13.1824648 16.4806342,14.6256219 16.4806342,14.6256219 L15.9496621,15.6091877 L15.4954321,16.9632433 L15.3846154,17.3184996 L15.6441754,17.5076248" id="Fill-45" stroke="none" fill="#CEADC1" fill-rule="evenodd"></path>
                                            <path d="M17.6923077,15.4682764 C17.6923077,15.4682764 16.9427473,15.0315222 16.1538462,16.1538462" id="Stroke-46" stroke="#A48497" stroke-width="0.3" fill="none" stroke-linecap="round" stroke-linejoin="round"></path>
                                            <path d="M0.769230769,10.5531427 C0.769230769,15.9177951 4.55766943,18.4615385 9.23108383,18.4615385 C13.9041836,18.4615385 17.6923077,15.9177951 17.6923077,10.5531427 C17.6923077,5.18815067 13.9041836,1.53846154 9.23108383,1.53846154 C4.55766943,1.53846154 0.769230769,5.18815067 0.769230769,10.5531427" id="Fill-47" stroke="none" fill="#47384A" fill-rule="evenodd"></path>
                                            <path d="M1.54380156,10.5321806 C1.54380156,13.5431229 1.97541371,16.1413649 2.40608073,17.9856291 C2.82792647,19.7910766 4.01470236,21.0527782 5.69231893,22.0682259 L5.99759789,22.2533045 C7.77256347,23.3277538 10.0654636,23.3529071 11.8675231,22.3172746 C13.6850198,21.2729471 14.9574881,19.8960372 15.3490895,17.9586126 C16.061407,14.4349779 16.1392232,10.5321806 16.1392232,10.5321806 C16.1392232,10.5321806 16.8168858,2.93153869 8.94579241,3.07904256 C1.07406892,3.22685697 1.54380156,10.5321806 1.54380156,10.5321806" id="Fill-48" stroke="none" fill="#CEADC1" fill-rule="evenodd"></path>
                                            <path d="M8.46153846,14.6153846 L8.46153846,15.6915856 C8.46153846,15.7551345 8.46998422,15.8164592 8.48576445,15.8723823 C8.54755184,16.0922616 8.72513502,16.1977528 8.88560443,16.1367458 L9.23076923,16.005835" id="Stroke-49" stroke="#64456B" stroke-width="0.5" fill="none" stroke-linecap="round" stroke-linejoin="round"></path>
                                            <path d="M7.69230769,11.3357765 L3.84615385,12.3076923 C3.84615385,12.3076923 4.02116205,11.2522786 5.59437744,10.8685221 C7.16790257,10.4850996 7.69230769,11.3357765 7.69230769,11.3357765" id="Fill-50" stroke="none" fill="#64456B" fill-rule="evenodd"></path>
                                            <path d="M10.7692308,11.3357765 L14.6153846,12.3076923 C14.6153846,12.3076923 14.4405449,11.2522786 12.866987,10.8685221 C11.29375,10.4850996 10.7692308,11.3357765 10.7692308,11.3357765" id="Fill-51" stroke="none" fill="#64456B" fill-rule="evenodd"></path>
                                            <path d="M6.92307692,13.846338 C6.92307692,14.2710079 6.57878782,14.6153846 6.15402987,14.6153846 C5.72890448,14.6153846 5.38461538,14.2710079 5.38461538,13.846338 C5.38461538,13.4212998 5.72890448,13.0769231 6.15402987,13.0769231 C6.57878782,13.0769231 6.92307692,13.4212998 6.92307692,13.846338" id="Fill-52" stroke="none" fill="#64456B" fill-rule="evenodd"></path>
                                            <path d="M13.0769231,13.846338 C13.0769231,14.2710079 12.7324311,14.6153846 12.3078759,14.6153846 C11.8829535,14.6153846 11.5384615,14.2710079 11.5384615,13.846338 C11.5384615,13.4212998 11.8829535,13.0769231 12.3078759,13.0769231 C12.7324311,13.0769231 13.0769231,13.4212998 13.0769231,13.846338" id="Fill-53" stroke="none" fill="#64456B" fill-rule="evenodd"></path>
                                            <path d="M11.5384615,18.4615385 C11.5384615,18.4615385 9.23076923,20.8377779 6.15384615,18.4615385 L11.5384615,18.4615385 Z" id="Fill-54" stroke="none" fill="#FFFFFF" fill-rule="evenodd"></path>
                                            <path d="M16.2539643,13.0769231 C16.2539643,13.0769231 13.25849,8.49158897 13.9497072,3.84615385 C13.9497072,3.84615385 16.1729974,5.11302896 16.7520605,8.38293176 C17.3311236,11.6531741 16.2539643,13.0769231 16.2539643,13.0769231" id="Fill-56" stroke="none" fill="#47384A" fill-rule="evenodd"></path>
                                            <path d="M1.92779999,13.0769231 C1.92779999,13.0769231 5.17570271,8.1979976 4.5306001,3.84615385 C4.5306001,3.84615385 2.27791859,5.32529086 1.73748772,8.38853589 C1.19733673,11.452099 1.53846154,13.0769231 1.53846154,13.0769231" id="Fill-57" stroke="none" fill="#47384A" fill-rule="evenodd"></path>
                                            <path d="M16.1538462,6.05499806 C16.1538462,6.05499806 12.2416688,10.7042937 1.53846154,9.90833112 C1.53846154,9.90833112 3.17750738,3.0860311 8.36456594,2.35926825 C8.36456594,2.35926825 14.3537627,1.58284051 16.1538462,6.05499806" id="Fill-58" stroke="none" fill="#47384A" fill-rule="evenodd"></path>
                                            <circle id="Oval" stroke="none" fill="#47384A" fill-rule="evenodd" cx="0.769230769" cy="11.5384615" r="1"></circle>
                                            <circle id="Oval-Copy-15" stroke="none" fill="#47384A" fill-rule="evenodd" cx="17.6923077" cy="12.3076923" r="1"></circle>
                                            <circle id="Oval-Copy-13" stroke="none" fill="#47384A" fill-rule="evenodd" cx="0.769230769" cy="8.46153846" r="1"></circle>
                                            <circle id="Oval-Copy-16" stroke="none" fill="#47384A" fill-rule="evenodd" cx="17.6923077" cy="9.23076923" r="1"></circle>
                                            <circle id="Oval-Copy-21" stroke="none" fill="#47384A" fill-rule="evenodd" cx="15.3846154" cy="3.84615385" r="1"></circle>
                                            <circle id="Oval-Copy-22" stroke="none" fill="#47384A" fill-rule="evenodd" cx="14.6153846" cy="3.07692308" r="1"></circle>
                                            <circle id="Oval-Copy-23" stroke="none" fill="#47384A" fill-rule="evenodd" cx="11.5384615" cy="1.53846154" r="1"></circle>
                                            <circle id="Oval-Copy-24" stroke="none" fill="#47384A" fill-rule="evenodd" cx="12.3076923" cy="2.30769231" r="1"></circle>
                                            <circle id="Oval-Copy-25" stroke="none" fill="#47384A" fill-rule="evenodd" cx="13.8461538" cy="2.30769231" r="1"></circle>
                                            <circle id="Oval-Copy-12" stroke="none" fill="#47384A" fill-rule="evenodd" cx="1.53846154" cy="10" r="1.53846154"></circle>
                                            <circle id="Oval-Copy-17" stroke="none" fill="#47384A" fill-rule="evenodd" cx="16.9230769" cy="10.7692308" r="1.53846154"></circle>
                                            <circle id="Oval-Copy-14" stroke="none" fill="#47384A" fill-rule="evenodd" cx="2.30769231" cy="6.92307692" r="1.53846154"></circle>
                                            <circle id="Oval-Copy-18" stroke="none" fill="#47384A" fill-rule="evenodd" cx="16.9230769" cy="7.69230769" r="1.53846154"></circle>
                                            <circle id="Oval-Copy-19" stroke="none" fill="#47384A" fill-rule="evenodd" cx="16.1538462" cy="5.38461538" r="1.53846154"></circle>
                                            <circle id="Oval-Copy-20" stroke="none" fill="#47384A" fill-rule="evenodd" cx="10" cy="2.30769231" r="1.53846154"></circle>
                                            <circle id="Oval-Copy-26" stroke="none" fill="#47384A" fill-rule="evenodd" cx="3.07692308" cy="4.61538462" r="1.53846154"></circle>
                                            <circle id="Oval-Copy-27" stroke="none" fill="#47384A" fill-rule="evenodd" cx="4.61538462" cy="2.30769231" r="1.53846154"></circle>
                                            <circle id="Oval-Copy-28" stroke="none" fill="#47384A" fill-rule="evenodd" cx="6.92307692" cy="2.30769231" r="1.53846154"></circle>
                                            <circle id="Oval-Copy-29" stroke="none" fill="#47384A" fill-rule="evenodd" cx="8.46153846" cy="1.53846154" r="1.53846154"></circle>
                                        </g>
                                    </g>
                                </g>
                            </g>
                            <g id="Group-5-Copy-3" transform="translate(162.000000, 19.000000)">
                                <circle id="Oval" stroke="#FFCE6D" fill="#FFFFFF" cx="30" cy="30" r="29.5"></circle>
                                <g id="Group" transform="translate(10.000000, 10.000000)">
                                    <mask id="mask-20" fill="white">
                                        <use xlink:href="#path-19"></use>
                                    </mask>
                                    <use id="Mask" fill="#FFE4AF" xlink:href="#path-19"></use>
                                    <g id="Group-2" mask="url(#mask-20)">
                                        <g transform="translate(6.769231, 12.538462)">
                                            <polygon id="Path-2" stroke="none" fill="#47384A" fill-rule="evenodd" points="20.9230769 16.6923077 24.9048415 26.2950346 14.7692308 29.9942533 4 28.2307692 0.916560246 25.5843412 5.53846154 15.1538462 20.1538462 14.7692308">
                                            </polygon>
                                            <path d="M16.3575505,26.9340155 L16.3575505,20.5384615 L9.04215461,20.5384615 L9.04215461,27.0092134 C8.66788777,27.1237041 8.04433012,27.3547177 7.07692308,27.8255518 L12.782178,31.3076923 L18.6153846,27.8255518 C18.6153846,27.8255518 17.6893056,27.2737613 16.3575505,26.9340155" id="Fill-41" stroke="none" fill="#CEADC1" fill-rule="evenodd"></path>
                                            <path d="M9.38461538,20.8271852 C9.38461538,20.8271852 10.5873256,25.5354479 13.7985893,25.1289631 C16.7501183,24.7554969 16.2802954,18.2307692 16.2802954,18.2307692 L9.38461538,20.8271852" id="Fill-42" stroke="none" fill="#A48497" fill-rule="evenodd"></path>
                                            <path d="M4.26279491,13.1577875 C5.33440212,12.2227233 6.15209823,13.689956 6.15209823,13.689956 L6.63050002,14.6844913 L6.99122008,16.0311067 L7.07692308,16.3840243 L6.78016047,16.5462436 C5.67113814,17.4246288 3.19118769,14.0931309 4.26279491,13.1577875 Z" id="Fill-43" stroke="none" fill="#CEADC1" fill-rule="evenodd"></path>
                                            <path d="M4.76923077,14.4322572 C4.76923077,14.4322572 5.58392949,14.1074871 6.30769231,15.1538462" id="Stroke-44" stroke="#A48497" stroke-width="0.3" fill="none" stroke-linecap="round" stroke-linejoin="round"></path>
                                            <path d="M19.6441754,16.5076248 C20.5893769,17.4929151 23.1778658,14.2642786 22.2723688,13.2235154 C21.367168,12.1824648 20.4806342,13.6256219 20.4806342,13.6256219 L19.9496621,14.6091877 L19.4954321,15.9632433 L19.3846154,16.3184996 L19.6441754,16.5076248" id="Fill-45" stroke="none" fill="#CEADC1" fill-rule="evenodd"></path>
                                            <path d="M21.6923077,14.4682764 C21.6923077,14.4682764 20.9427473,14.0315222 20.1538462,15.1538462" id="Stroke-46" stroke="#A48497" stroke-width="0.3" fill="none" stroke-linecap="round" stroke-linejoin="round"></path>
                                            <path d="M4.76923077,9.55314274 C4.76923077,14.9177951 8.55766943,17.4615385 13.2310838,17.4615385 C17.9041836,17.4615385 21.6923077,14.9177951 21.6923077,9.55314274 C21.6923077,4.18815067 17.9041836,0.538461538 13.2310838,0.538461538 C8.55766943,0.538461538 4.76923077,4.18815067 4.76923077,9.55314274" id="Fill-47" stroke="none" fill="#47384A" fill-rule="evenodd"></path>
                                            <path d="M5.54380156,9.53218058 C5.54380156,12.5431229 5.97541371,15.1413649 6.40608073,16.9856291 C6.82792647,18.7910766 8.01470236,20.0527782 9.69231893,21.0682259 L9.99759789,21.2533045 C11.7725635,22.3277538 14.0654636,22.3529071 15.8675231,21.3172746 C17.6850198,20.2729471 18.9574881,18.8960372 19.3490895,16.9586126 C20.061407,13.4349779 20.1392232,9.53218058 20.1392232,9.53218058 C20.1392232,9.53218058 20.8168858,1.93153869 12.9457924,2.07904256 C5.07406892,2.22685697 5.54380156,9.53218058 5.54380156,9.53218058" id="Fill-48" stroke="none" fill="#CEADC1" fill-rule="evenodd"></path>
                                            <path d="M12.4615385,13.6153846 L12.4615385,14.6915856 C12.4615385,14.7551345 12.4699842,14.8164592 12.4857645,14.8723823 C12.5475518,15.0922616 12.725135,15.1977528 12.8856044,15.1367458 L13.2307692,15.005835" id="Stroke-49" stroke="#64456B" stroke-width="0.5" fill="none" stroke-linecap="round" stroke-linejoin="round"></path>
                                            <path d="M11.6923077,10.3357765 L7.84615385,11.3076923 C7.84615385,11.3076923 8.02116205,10.2522786 9.59437744,9.86852211 C11.1679026,9.48509965 11.6923077,10.3357765 11.6923077,10.3357765" id="Fill-50" stroke="none" fill="#64456B" fill-rule="evenodd"></path>
                                            <path d="M14.7692308,10.3357765 L18.6153846,11.3076923 C18.6153846,11.3076923 18.4405449,10.2522786 16.866987,9.86852211 C15.29375,9.48509965 14.7692308,10.3357765 14.7692308,10.3357765" id="Fill-51" stroke="none" fill="#64456B" fill-rule="evenodd"></path>
                                            <path d="M10.9230769,12.846338 C10.9230769,13.2710079 10.5787878,13.6153846 10.1540299,13.6153846 C9.72890448,13.6153846 9.38461538,13.2710079 9.38461538,12.846338 C9.38461538,12.4212998 9.72890448,12.0769231 10.1540299,12.0769231 C10.5787878,12.0769231 10.9230769,12.4212998 10.9230769,12.846338" id="Fill-52" stroke="none" fill="#64456B" fill-rule="evenodd"></path>
                                            <path d="M17.0769231,12.846338 C17.0769231,13.2710079 16.7324311,13.6153846 16.3078759,13.6153846 C15.8829535,13.6153846 15.5384615,13.2710079 15.5384615,12.846338 C15.5384615,12.4212998 15.8829535,12.0769231 16.3078759,12.0769231 C16.7324311,12.0769231 17.0769231,12.4212998 17.0769231,12.846338" id="Fill-53" stroke="none" fill="#64456B" fill-rule="evenodd"></path>
                                            <path d="M15.5384615,17.4615385 C15.5384615,17.4615385 13.2307692,19.8377779 10.1538462,17.4615385 L15.5384615,17.4615385 Z" id="Fill-54" stroke="none" fill="#FFFFFF" fill-rule="evenodd"></path>
                                            <path d="M20.2539643,12.0769231 C20.2539643,12.0769231 17.25849,7.49158897 17.9497072,2.84615385 C17.9497072,2.84615385 20.1729974,4.11302896 20.7520605,7.38293176 C21.3311236,10.6531741 20.2539643,12.0769231 20.2539643,12.0769231" id="Fill-56" stroke="none" fill="#47384A" fill-rule="evenodd"></path>
                                            <path d="M5.92779999,12.0769231 C5.92779999,12.0769231 9.17570271,7.1979976 8.5306001,2.84615385 C8.5306001,2.84615385 6.27791859,4.32529086 5.73748772,7.38853589 C5.19733673,10.452099 5.53846154,12.0769231 5.53846154,12.0769231" id="Fill-57" stroke="none" fill="#47384A" fill-rule="evenodd"></path>
                                            <path d="M20.1538462,5.05499806 C20.1538462,5.05499806 16.2416688,9.70429371 5.53846154,8.90833112 C5.53846154,8.90833112 7.17750738,2.0860311 12.3645659,1.35926825 C12.3645659,1.35926825 18.3537627,0.582840508 20.1538462,5.05499806" id="Fill-58" stroke="none" fill="#47384A" fill-rule="evenodd"></path>
                                        </g>
                                    </g>
                                </g>
                            </g>
                            <g id="noun_start_2343220" transform="translate(212.000000, 142.000000)" fill="#78C2F2" fill-rule="nonzero">
                                <path d="M19.9389917,7.54178408 C19.7917826,7.08919289 19.4004689,6.75936717 18.9294886,6.6909065 L13.5339722,5.90602912 L11.1205899,1.0170143 C10.8870456,0.619836553 10.4607143,0.375950595 9.99996153,0.375950595 C9.53920877,0.375950595 9.11287745,0.619836553 8.87933313,1.0170143 L6.46595081,5.90602912 L1.07043445,6.6909065 C0.599790892,6.75934642 0.208759756,7.08893547 0.0616302226,7.54119898 C-0.0854993108,7.99346249 0.0367660634,8.49003622 0.377057346,8.82228797 L4.28219419,12.6284245 L3.36044139,18.0020658 C3.28005801,18.4711582 3.47303133,18.9451975 3.85818632,19.2247772 C4.24334132,19.5043568 4.75384308,19.5409621 5.1749469,19.3191948 L9.99996153,16.7825621 L14.8249762,19.3191948 C15.2460442,19.5406761 15.7563348,19.503925 16.1413197,19.2243917 C16.5263047,18.9448585 16.7192271,18.4710146 16.6389817,18.0020658 L15.7172289,12.6284245 L19.6228657,8.82228797 C19.9631787,8.49030196 20.0857027,7.99400473 19.9389917,7.54178408 Z M13.5022222,11.2966705 C13.2079714,11.5838744 13.0737841,11.9974199 13.1433461,12.4026738 L13.7475979,15.9276845 L10.5822133,14.2641795 C10.2177884,14.072177 9.7821347,14.072177 9.41770976,14.2641795 L6.25232516,15.9280595 L6.856577,12.4030488 C6.92613896,11.9977949 6.79195168,11.5842494 6.49770091,11.2970455 L3.93669314,8.8002879 L7.47557887,8.28516134 C7.88279816,8.2263537 8.23486659,7.97061427 8.41670673,7.60153426 L9.99996153,4.39477454 L11.5832163,7.60153426 C11.7650565,7.97061427 12.1171249,8.2263537 12.5243442,8.28516134 L16.0632299,8.8002879 L13.5022222,11.2966705 Z" id="Shape"></path>
                            </g>
                            <circle id="Oval-Copy-9" fill="#CAEDEE" cx="571.5" cy="357.5" r="5.5"></circle>
                        </g>
                    </g>
                </g>
            </svg>